<?xml version="1.0" encoding="UTF-8"?>
<svg width="800" height="800" viewBox="0 0 800 800" fill="none" xmlns="http://www.w3.org/2000/svg">
    <rect width="800" height="800" fill="#161616"/>
    
    <!-- World Map (Simplified) -->
    <!-- North America -->
    <path d="M150 200 C200 180 250 190 300 200 C320 220 310 250 330 270 C350 290 380 280 400 300 L380 350 L320 340 L280 320 L240 330 L200 310 L180 280 L150 260 Z" 
          fill="#2A2A2A" stroke="#186b80" stroke-width="2"/>
    
    <!-- South America -->
    <path d="M280 400 C300 380 330 390 350 410 C370 440 360 470 380 490 L350 520 L320 530 L290 510 L270 480 Z" 
          fill="#2A2A2A" stroke="#186b80" stroke-width="2"/>
    
    <!-- Europe -->
    <path d="M420 200 C440 190 470 195 490 210 C510 230 500 260 520 270 L500 290 L470 285 L450 270 L430 260 Z" 
          fill="#2A2A2A" stroke="#186b80" stroke-width="2"/>
    
    <!-- Africa -->
    <path d="M450 300 C470 290 500 295 520 310 C540 340 530 370 550 390 L520 420 L490 430 L460 410 L440 380 Z" 
          fill="#2A2A2A" stroke="#186b80" stroke-width="2"/>
    
    <!-- Asia -->
    <path d="M520 180 C550 170 590 175 620 190 C650 220 640 260 660 280 C680 300 670 330 690 350 L660 380 L620 370 L580 350 L550 320 L530 290 L520 260 Z" 
          fill="#2A2A2A" stroke="#186b80" stroke-width="2"/>
    
    <!-- Australia -->
    <path d="M600 450 C620 440 650 445 670 460 C690 480 680 510 700 520 L670 540 L640 530 L620 510 L610 490 Z" 
          fill="#2A2A2A" stroke="#186b80" stroke-width="2"/>
    
    <!-- Points of Interest -->
    <!-- San Francisco -->
    <circle cx="180" cy="250" r="6" fill="#e03932"/>
    
    <!-- New York -->
    <circle cx="300" cy="240" r="6" fill="#e03932"/>
    
    <!-- London -->
    <circle cx="450" cy="220" r="6" fill="#4eb7b4"/>
    
    <!-- Tokyo -->
    <circle cx="650" cy="250" r="6" fill="#efb023"/>
    
    <!-- Singapore -->
    <circle cx="600" cy="380" r="6" fill="#e4722c"/>
    
    <!-- Sydney -->
    <circle cx="650" cy="500" r="6" fill="#4eb7b4"/>
    
    <!-- Grid Lines -->
    <path d="M100 400 H700" stroke="#2A2A2A" stroke-width="1"/>
    <path d="M400 150 V650" stroke="#2A2A2A" stroke-width="1"/>
    
    <!-- Latitude/Longitude Curves -->
    <path d="M100 300 Q400 250 700 300" stroke="#2A2A2A" stroke-width="1" fill="none"/>
    <path d="M100 500 Q400 450 700 500" stroke="#2A2A2A" stroke-width="1" fill="none"/>
    <path d="M300 150 Q350 400 300 650" stroke="#2A2A2A" stroke-width="1" fill="none"/>
    <path d="M500 150 Q450 400 500 650" stroke="#2A2A2A" stroke-width="1" fill="none"/>
</svg> 