<?xml version="1.0" encoding="UTF-8"?>
<svg width="800" height="800" viewBox="0 0 800 800" fill="none" xmlns="http://www.w3.org/2000/svg">
    <rect width="800" height="800" fill="#161616"/>
    <!-- Scanner Frame -->
    <rect x="200" y="200" width="400" height="400" rx="8" stroke="#4eb7b4" stroke-width="4" fill="none"/>
    <!-- Corner Markers -->
    <path d="M180 180 L220 180 L220 220" stroke="#e03932" stroke-width="4" fill="none"/>
    <path d="M580 180 L620 180 L620 220" stroke="#e03932" stroke-width="4" fill="none"/>
    <path d="M180 580 L220 580 L220 620" stroke="#e03932" stroke-width="4" fill="none"/>
    <path d="M580 580 L620 580 L620 620" stroke="#e03932" stroke-width="4" fill="none"/>
    <!-- QR Code Pattern -->
    <rect x="300" y="300" width="40" height="40" fill="#e4e4e4"/>
    <rect x="380" y="300" width="40" height="40" fill="#e4e4e4"/>
    <rect x="460" y="300" width="40" height="40" fill="#e4e4e4"/>
    <rect x="300" y="380" width="40" height="40" fill="#e4e4e4"/>
    <rect x="380" y="380" width="40" height="40" fill="#e4e4e4"/>
    <rect x="460" y="380" width="40" height="40" fill="#e4e4e4"/>
    <rect x="300" y="460" width="40" height="40" fill="#e4e4e4"/>
    <rect x="380" y="460" width="40" height="40" fill="#e4e4e4"/>
    <rect x="460" y="460" width="40" height="40" fill="#e4e4e4"/>
</svg> 